<svg width="37" height="37" viewBox="0 0 37 37" fill="none" xmlns="http://www.w3.org/2000/svg">
<path d="M18.5007 3.08301C15.4515 3.08301 12.4709 3.98718 9.93562 5.68118C7.40036 7.37519 5.42437 9.78294 4.25752 12.6C3.09066 15.417 2.78536 18.5168 3.38022 21.5073C3.97507 24.4979 5.44337 27.2448 7.59943 29.4009C9.75549 31.557 12.5025 33.0253 15.493 33.6201C18.4836 34.215 21.5833 33.9097 24.4004 32.7428C27.2174 31.576 29.6251 29.6 31.3191 27.0647C33.0132 24.5295 33.9173 21.5488 33.9173 18.4997C33.9173 16.4751 33.5186 14.4704 32.7438 12.6C31.969 10.7295 30.8335 9.03001 29.4019 7.59844C27.9703 6.16688 26.2708 5.03129 24.4004 4.25653C22.5299 3.48177 20.5252 3.08301 18.5007 3.08301ZM18.5007 30.833C16.0614 30.833 13.6768 30.1097 11.6486 28.7545C9.62042 27.3993 8.03963 25.4731 7.10614 23.2194C6.17266 20.9658 5.92842 18.486 6.40431 16.0936C6.88019 13.7011 8.05483 11.5035 9.77967 9.77869C11.5045 8.05384 13.7021 6.87921 16.0945 6.40332C18.487 5.92744 20.9668 6.17168 23.2204 7.10516C25.474 8.03864 27.4002 9.61943 28.7554 11.6476C30.1107 13.6758 30.834 16.0604 30.834 18.4997C30.834 21.7707 29.5346 24.9077 27.2216 27.2207C24.9087 29.5336 21.7717 30.833 18.5007 30.833Z" fill="#1E1E1E" fill-opacity="0.24"/>
<path d="M22.679 14.3222C22.5357 14.1777 22.3652 14.063 22.1774 13.9848C21.9895 13.9065 21.788 13.8662 21.5845 13.8662C21.3809 13.8662 21.1794 13.9065 20.9916 13.9848C20.8037 14.063 20.6332 14.1777 20.4899 14.3222L18.5011 16.3264L16.5124 14.3222C16.2221 14.0319 15.8283 13.8688 15.4178 13.8688C15.0072 13.8688 14.6135 14.0319 14.3232 14.3222C14.0329 14.6125 13.8698 15.0063 13.8698 15.4168C13.8698 15.8274 14.0329 16.2211 14.3232 16.5114L16.3274 18.5002L14.3232 20.4889C14.1787 20.6322 14.064 20.8027 13.9858 20.9906C13.9075 21.1785 13.8672 21.38 13.8672 21.5835C13.8672 21.787 13.9075 21.9885 13.9858 22.1764C14.064 22.3642 14.1787 22.5347 14.3232 22.6781C14.4665 22.8226 14.637 22.9373 14.8249 23.0155C15.0128 23.0938 15.2143 23.1341 15.4178 23.1341C15.6213 23.1341 15.8228 23.0938 16.0107 23.0155C16.1985 22.9373 16.3691 22.8226 16.5124 22.6781L18.5011 20.6739L20.4899 22.6781C20.6332 22.8226 20.8037 22.9373 20.9916 23.0155C21.1794 23.0938 21.3809 23.1341 21.5845 23.1341C21.788 23.1341 21.9895 23.0938 22.1774 23.0155C22.3652 22.9373 22.5357 22.8226 22.679 22.6781C22.8235 22.5347 22.9382 22.3642 23.0165 22.1764C23.0948 21.9885 23.1351 21.787 23.1351 21.5835C23.1351 21.38 23.0948 21.1785 23.0165 20.9906C22.9382 20.8027 22.8235 20.6322 22.679 20.4889L20.6749 18.5002L22.679 16.5114C22.8235 16.3681 22.9382 16.1976 23.0165 16.0097C23.0948 15.8218 23.1351 15.6203 23.1351 15.4168C23.1351 15.2133 23.0948 15.0118 23.0165 14.8239C22.9382 14.6361 22.8235 14.4656 22.679 14.3222Z" fill="#1E1E1E" fill-opacity="0.24"/>
</svg>
