<svg width="70" height="63" viewBox="0 0 70 63" fill="none" xmlns="http://www.w3.org/2000/svg">
<rect width="69.72" height="63" rx="8.4" fill="#F2F9FC"/>
<path fill-rule="evenodd" clip-rule="evenodd" d="M35.6605 19.3198C31.0405 19.3198 27.3209 23.0158 27.3209 27.5468C27.3209 28.3229 27.4301 29.0739 27.6317 29.7828C28.4667 30.0248 29.2496 30.3876 29.9552 30.858C30.1003 30.946 30.2262 31.0623 30.3253 31.2001C30.4244 31.3378 30.4946 31.4942 30.5318 31.6597C30.5689 31.8253 30.5723 31.9967 30.5416 32.1636C30.5109 32.3305 30.4468 32.4895 30.3532 32.631C30.2596 32.7725 30.1383 32.8936 29.9967 32.9872C29.8551 33.0807 29.6961 33.1446 29.5292 33.1752C29.3622 33.2057 29.1909 33.2022 29.0253 33.1649C28.8598 33.1276 28.7035 33.0572 28.5658 32.958C27.5863 32.309 26.4363 31.9647 25.2613 31.9685C21.9668 31.9685 19.3208 34.6061 19.3208 37.825C19.3208 41.0439 21.9668 43.6798 25.2613 43.6798H42.0613C46.6813 43.6798 50.4008 39.9838 50.4008 35.4528C50.4008 31.8627 48.0656 28.7967 44.7929 27.6778C43.9136 27.3771 42.9906 27.2238 42.0613 27.2242C41.0818 27.2242 40.1461 27.3922 39.2758 27.6946C38.9623 27.797 38.6212 27.7723 38.3256 27.626C38.0301 27.4796 37.8037 27.2233 37.6951 26.9119C37.5864 26.6005 37.6042 26.2589 37.7446 25.9605C37.885 25.6621 38.1368 25.4306 38.4459 25.3157C40.0753 24.7469 41.8161 24.5713 43.5262 24.8033C42.939 23.1908 41.8684 21.7989 40.4606 20.8175C39.0529 19.8361 37.3765 19.313 35.6605 19.3198ZM46.3369 25.5711C45.3977 20.5697 40.9659 16.7998 35.6605 16.7998C29.6763 16.7998 24.8009 21.5979 24.8009 27.5468C24.8009 28.1969 24.8597 28.8353 24.9723 29.4536C20.4464 29.6048 16.8008 33.2806 16.8008 37.825C16.8008 42.4635 20.6026 46.1998 25.2613 46.1998H42.0613C48.0437 46.1998 52.9208 41.4017 52.9208 35.4528C52.9208 31.0109 50.2009 27.2124 46.3369 25.5711Z" fill="#018DC9"/>
</svg>
