<svg width="66" height="66" viewBox="0 0 66 66" fill="none" xmlns="http://www.w3.org/2000/svg">
<rect x="0.0585938" width="65.6" height="65.6" rx="8.4" fill="#F2F9FC"/>
<path d="M30.8463 19.7729L24.1929 22.2796C22.6596 22.8529 21.4062 24.6662 21.4062 26.2929V36.1996C21.4062 37.7729 22.4462 39.8396 23.7129 40.7862L29.4462 45.0662C31.3262 46.4796 34.4196 46.4796 36.2996 45.0662L42.0329 40.7862C43.2996 39.8396 44.3396 37.7729 44.3396 36.1996V26.2929C44.3396 24.6529 43.0863 22.8396 41.5529 22.2662L34.8996 19.7729C33.7663 19.3596 31.9529 19.3596 30.8463 19.7729Z" stroke="#018DC9" stroke-width="2.66667" stroke-linecap="round" stroke-linejoin="round"/>
<path d="M28.9277 32.6257L31.0744 34.7724L36.8077 29.0391" stroke="#018DC9" stroke-width="2.66667" stroke-linecap="round" stroke-linejoin="round"/>
</svg>
