<svg width="131" height="65" viewBox="0 0 131 65" fill="none" xmlns="http://www.w3.org/2000/svg">
<path d="M52.7896 57.0674V35.3981H61.0849C62.6508 35.3981 63.9523 35.645 64.9892 36.1388C66.0331 36.6255 66.8126 37.2921 67.3275 38.1385C67.8495 38.985 68.1105 39.9443 68.1105 41.0165C68.1105 41.8982 67.9412 42.653 67.6026 43.2808C67.264 43.9015 66.809 44.4058 66.2377 44.7938C65.6663 45.1818 65.028 45.4604 64.3226 45.6297V45.8413C65.0914 45.8836 65.8286 46.1199 66.5339 46.5502C67.2464 46.9734 67.8283 47.573 68.2798 48.3489C68.7312 49.1248 68.9569 50.063 68.9569 51.1634C68.9569 52.2849 68.6854 53.2936 68.1422 54.1894C67.5991 55.0782 66.7808 55.7801 65.6875 56.295C64.5942 56.8099 63.2187 57.0674 61.561 57.0674H52.7896ZM56.7151 53.7874H60.9368C62.3616 53.7874 63.388 53.5158 64.0157 52.9727C64.6506 52.4225 64.968 51.7171 64.968 50.8565C64.968 50.2146 64.8093 49.6362 64.4919 49.1213C64.1745 48.5993 63.723 48.1902 63.1375 47.8939C62.5521 47.5906 61.8538 47.439 61.0426 47.439H56.7151V53.7874ZM56.7151 44.6139H60.5982C61.2753 44.6139 61.8855 44.4905 62.4286 44.2436C62.9718 43.9897 63.3985 43.6334 63.7089 43.1749C64.0263 42.7094 64.185 42.1592 64.185 41.5244C64.185 40.685 63.8888 39.9937 63.2963 39.4505C62.7108 38.9074 61.8397 38.6358 60.6828 38.6358H56.7151V44.6139ZM72.2025 57.0674V40.8155H76.0328V57.0674H72.2025ZM74.1282 38.5089C73.5216 38.5089 72.9996 38.3078 72.5623 37.9058C72.125 37.4966 71.9063 37.0064 71.9063 36.4351C71.9063 35.8566 72.125 35.3664 72.5623 34.9643C72.9996 34.5552 73.5216 34.3507 74.1282 34.3507C74.7419 34.3507 75.2639 34.5552 75.6942 34.9643C76.1315 35.3664 76.3502 35.8566 76.3502 36.4351C76.3502 37.0064 76.1315 37.4966 75.6942 37.9058C75.2639 38.3078 74.7419 38.5089 74.1282 38.5089ZM83.8016 35.3981V57.0674H79.9714V35.3981H83.8016ZM87.7403 57.0674V40.8155H91.5705V57.0674H87.7403ZM89.666 38.5089C89.0593 38.5089 88.5374 38.3078 88.1 37.9058C87.6627 37.4966 87.444 37.0064 87.444 36.4351C87.444 35.8566 87.6627 35.3664 88.1 34.9643C88.5374 34.5552 89.0593 34.3507 89.666 34.3507C90.2796 34.3507 90.8016 34.5552 91.2319 34.9643C91.6692 35.3664 91.8879 35.8566 91.8879 36.4351C91.8879 37.0064 91.6692 37.4966 91.2319 37.9058C90.8016 38.3078 90.2796 38.5089 89.666 38.5089ZM99.3393 47.5448V57.0674H95.5091V40.8155H99.1701V43.577H99.3605C99.7344 42.6671 100.33 41.9441 101.149 41.408C101.974 40.8719 102.993 40.6038 104.206 40.6038C105.328 40.6038 106.305 40.8437 107.137 41.3233C107.977 41.803 108.626 42.4978 109.084 43.4077C109.55 44.3177 109.779 45.4216 109.772 46.7195V57.0674H105.942V47.312C105.942 46.2257 105.66 45.3757 105.095 44.7621C104.538 44.1484 103.766 43.8415 102.778 43.8415C102.108 43.8415 101.512 43.9897 100.99 44.2859C100.475 44.5751 100.069 44.9948 99.7732 45.545C99.4839 46.0952 99.3393 46.7618 99.3393 47.5448ZM120.733 63.5004C119.358 63.5004 118.176 63.3135 117.189 62.9397C116.201 62.5729 115.408 62.0791 114.808 61.4584C114.209 60.8376 113.793 60.1499 113.56 59.3951L117.009 58.5593C117.164 58.8767 117.39 59.1906 117.686 59.5009C117.983 59.8184 118.381 60.0793 118.882 60.2839C119.39 60.4955 120.028 60.6013 120.797 60.6013C121.883 60.6013 122.783 60.3368 123.495 59.8078C124.207 59.2858 124.564 58.4252 124.564 57.2261V54.1471H124.373C124.176 54.5421 123.887 54.9477 123.506 55.3639C123.132 55.7801 122.634 56.1292 122.014 56.4114C121.4 56.6935 120.628 56.8346 119.697 56.8346C118.448 56.8346 117.316 56.5419 116.3 55.9564C115.291 55.3639 114.487 54.4822 113.888 53.3112C113.295 52.1333 112.999 50.659 112.999 48.8885C112.999 47.1039 113.295 45.5979 113.888 44.3706C114.487 43.1362 115.295 42.2015 116.311 41.5667C117.327 40.9248 118.459 40.6038 119.707 40.6038C120.659 40.6038 121.442 40.7661 122.056 41.0906C122.677 41.408 123.171 41.7924 123.537 42.2438C123.904 42.6882 124.183 43.1079 124.373 43.503H124.585V40.8155H128.362V57.3319C128.362 58.7215 128.031 59.8713 127.368 60.7812C126.705 61.6911 125.798 62.3718 124.648 62.8233C123.499 63.2747 122.194 63.5004 120.733 63.5004ZM120.765 53.8297C121.576 53.8297 122.268 53.6322 122.839 53.2372C123.41 52.8422 123.844 52.2743 124.14 51.5337C124.437 50.793 124.585 49.9043 124.585 48.8674C124.585 47.8446 124.437 46.9487 124.14 46.1799C123.851 45.411 123.421 44.815 122.85 44.3917C122.285 43.9614 121.591 43.7463 120.765 43.7463C119.912 43.7463 119.199 43.9685 118.628 44.4129C118.057 44.8573 117.626 45.4674 117.337 46.2433C117.048 47.0122 116.903 47.8869 116.903 48.8674C116.903 49.8619 117.048 50.7331 117.337 51.4808C117.633 52.2214 118.067 52.7998 118.639 53.216C119.217 53.6251 119.926 53.8297 120.765 53.8297Z" fill="white"/>
<path d="M46.666 30.981C24.5326 29.3236 11.3654 25.7888 1.16732 19.3639C0.664004 19.0468 0 19.4041 0 19.9989V60.151C0 60.5624 0.333495 60.8959 0.744881 60.8959H46.6182C47.0296 60.8959 47.3631 60.5624 47.3631 60.151V31.7252C47.3631 31.3347 47.0554 31.0102 46.666 30.981Z" fill="white"/>
<path d="M3.62753 55.875V34.2058H11.9228C13.4887 34.2058 14.7902 34.4526 15.8271 34.9464C16.871 35.4331 17.6505 36.0997 18.1654 36.9462C18.6874 37.7926 18.9484 38.7519 18.9484 39.8241C18.9484 40.7058 18.7791 41.4606 18.4405 42.0884C18.1019 42.7091 17.6469 43.2135 17.0756 43.6014C16.5042 43.9894 15.8659 44.268 15.1605 44.4373V44.6489C15.9293 44.6912 16.6665 44.9275 17.3718 45.3578C18.0843 45.781 18.6662 46.3806 19.1176 47.1565C19.5691 47.9324 19.7948 48.8706 19.7948 49.971C19.7948 51.0925 19.5232 52.1012 18.9801 52.9971C18.437 53.8858 17.6187 54.5877 16.5254 55.1026C15.432 55.6175 14.0566 55.875 12.3989 55.875H3.62753ZM7.55296 52.595H11.7747C13.1995 52.595 14.2258 52.3234 14.8536 51.7803C15.4885 51.2301 15.8059 50.5247 15.8059 49.6641C15.8059 49.0222 15.6472 48.4438 15.3298 47.9289C15.0123 47.4069 14.5609 46.9978 13.9754 46.7015C13.39 46.3982 12.6916 46.2466 11.8805 46.2466H7.55296V52.595ZM7.55296 43.4215H11.4361C12.1132 43.4215 12.7234 43.2981 13.2665 43.0512C13.8097 42.7973 14.2364 42.4411 14.5468 41.9826C14.8642 41.517 15.0229 40.9668 15.0229 40.332C15.0229 39.4926 14.7267 38.8013 14.1341 38.2582C13.5487 37.715 12.6775 37.4435 11.5207 37.4435H7.55296V43.4215ZM23.0404 55.875V39.6231H26.8706V55.875H23.0404ZM24.9661 37.3165C24.3595 37.3165 23.8375 37.1155 23.4002 36.7134C22.9628 36.3043 22.7442 35.814 22.7442 35.2427C22.7442 34.6643 22.9628 34.174 23.4002 33.772C23.8375 33.3628 24.3595 33.1583 24.9661 33.1583C25.5798 33.1583 26.1018 33.3628 26.5321 33.772C26.9694 34.174 27.1881 34.6643 27.1881 35.2427C27.1881 35.814 26.9694 36.3043 26.5321 36.7134C26.1018 37.1155 25.5798 37.3165 24.9661 37.3165ZM30.5977 55.875V53.4414L38.9776 42.9348V42.7973H30.8728V39.6231H43.6648V42.2365L35.687 52.5632V52.7008H43.9399V55.875H30.5977Z" fill="#018DC9"/>
<path d="M2.91499 9.23213L2.2351 21.043L3.82068 13.0964C3.86845 12.857 3.89233 12.7373 3.97656 12.7109C4.06079 12.6845 4.14977 12.77 4.32772 12.9412C12.4258 20.7297 23.3878 22.8148 46.5182 31.2931C23.5773 21.5471 13.6177 18.25 3.41859 9.03005C3.21426 8.84534 3.1121 8.75299 3.02529 8.78859C2.93847 8.82419 2.93064 8.96017 2.91499 9.23213Z" fill="white"/>
<path d="M10.8505 0.632917L7.74647 11.9559L10.9264 4.58001C11.0243 4.35291 11.0732 4.23936 11.1618 4.23162C11.2505 4.22387 11.319 4.32819 11.4561 4.53682C17.4492 13.6576 27.1064 18.8134 46.9405 31.2934C27.5329 17.606 19.0469 11.4415 11.3866 0.542979C11.2263 0.315012 11.1462 0.201028 11.0531 0.217255C10.96 0.233482 10.9235 0.366627 10.8505 0.632917Z" fill="white"/>
</svg>
