<svg width="72" height="71" viewBox="0 0 72 71" fill="none" xmlns="http://www.w3.org/2000/svg">
<rect x="0.458984" width="70.8002" height="70.8002" rx="8.4" fill="#F2F9FC"/>
<g clip-path="url(#clip0_977_4440)">
<path d="M47.8166 42.0432H50.4738C51.1785 42.0432 51.8544 41.7633 52.3527 41.2649C52.851 40.7666 53.1309 40.0908 53.1309 39.3861V35.4003C53.1309 34.6956 52.851 34.0197 52.3527 33.5214C51.8544 33.0231 51.1785 32.7432 50.4738 32.7432H47.8166C47.4643 32.7432 47.1263 32.8831 46.8772 33.1323C46.628 33.3815 46.488 33.7194 46.488 34.0717V40.7146C46.488 41.067 46.628 41.4049 46.8772 41.6541C47.1263 41.9032 47.4643 42.0432 47.8166 42.0432ZM47.8166 42.0432V44.0361C47.8166 45.4455 47.2567 46.7972 46.2601 47.7939C45.2635 48.7905 43.9117 49.3504 42.5023 49.3504M21.245 32.7432H23.9022C24.2546 32.7432 24.5925 32.8831 24.8417 33.1323C25.0908 33.3815 25.2308 33.7194 25.2308 34.0717V40.7146C25.2308 41.067 25.0908 41.4049 24.8417 41.6541C24.5925 41.9032 24.2546 42.0432 23.9022 42.0432H21.245C20.5403 42.0432 19.8645 41.7633 19.3662 41.2649C18.8678 40.7666 18.5879 40.0908 18.5879 39.3861V35.4003C18.5879 34.6956 18.8678 34.0197 19.3662 33.5214C19.8645 33.0231 20.5403 32.7432 21.245 32.7432Z" stroke="#018DC9" stroke-width="2.65716" stroke-linecap="round" stroke-linejoin="round"/>
<path d="M23.9043 32.7433V30.0861C23.9043 26.9149 25.1641 23.8735 27.4065 21.6311C29.6489 19.3887 32.6903 18.1289 35.8615 18.1289C39.0328 18.1289 42.0741 19.3887 44.3165 21.6311C46.5589 23.8735 47.8187 26.9149 47.8187 30.0861V32.7433M31.8758 27.429V31.4147M39.8472 27.429V31.4147M31.8758 36.729C31.8758 40.263 39.8472 40.263 39.8472 36.729M39.1829 46.0291C40.0639 46.0291 40.9087 46.379 41.5316 47.0019C42.1545 47.6248 42.5044 48.4696 42.5044 49.3505C42.5044 50.2314 42.1545 51.0762 41.5316 51.6991C40.9087 52.322 40.0639 52.6719 39.1829 52.6719H35.1972C34.3163 52.6719 33.4715 52.322 32.8486 51.6991C32.2257 51.0762 31.8758 50.2314 31.8758 49.3505C31.8758 48.4696 32.2257 47.6248 32.8486 47.0019C33.4715 46.379 34.3163 46.0291 35.1972 46.0291H39.1829Z" stroke="#018DC9" stroke-width="2.65716" stroke-linecap="round" stroke-linejoin="round"/>
</g>
<defs>
<clipPath id="clip0_977_4440">
<rect width="37.2002" height="37.2002" fill="white" transform="translate(17.2598 16.7998)"/>
</clipPath>
</defs>
</svg>
