<svg width="68" height="63" viewBox="0 0 68 63" fill="none" xmlns="http://www.w3.org/2000/svg">
<rect x="0.699219" width="66.6" height="63" rx="8.4" fill="#F2F9FC"/>
<path d="M38.123 23.25H36.0605C36.0605 21.8825 35.5173 20.571 34.5503 19.604C33.5833 18.637 32.2718 18.0937 30.9043 18.0937C29.5368 18.0937 28.2253 18.637 27.2583 19.604C26.2913 20.571 25.748 21.8825 25.748 23.25H23.6855C23.6855 21.3355 24.4461 19.4994 25.7999 18.1456C27.1536 16.7918 28.9898 16.0312 30.9043 16.0312C32.8188 16.0313 34.6549 16.7918 36.0087 18.1456C37.3625 19.4994 38.123 21.3355 38.123 23.25Z" fill="#018DC9"/>
<path d="M43.2811 30.4688C42.7483 30.4707 42.2254 30.6129 41.7651 30.8813C41.4871 30.4403 41.1022 30.0767 40.646 29.8243C40.1899 29.5719 39.6774 29.4388 39.1561 29.4375C38.6233 29.4394 38.1004 29.5817 37.6401 29.85C37.2649 29.2596 36.7008 28.8138 36.0396 28.5854C35.3785 28.3569 34.6595 28.3592 33.9998 28.5919V23.25C33.9998 22.4295 33.6739 21.6426 33.0937 21.0624C32.5135 20.4822 31.7266 20.1562 30.9061 20.1562C30.0856 20.1562 29.2987 20.4822 28.7185 21.0624C28.1383 21.6426 27.8123 22.4295 27.8123 23.25V34.6969L25.5126 33.1294C24.9855 32.7368 24.3446 32.5268 23.6873 32.5313C23.0737 32.5297 22.4735 32.7107 21.963 33.0512C21.4525 33.3917 21.0548 33.8763 20.8205 34.4434C20.5861 35.0105 20.5257 35.6345 20.6469 36.236C20.7681 36.8376 21.0654 37.3895 21.5011 37.8216L29.7511 45.3497C30.9191 46.3951 32.4323 46.9717 33.9998 46.9688H39.1561C41.0706 46.9688 42.9067 46.2082 44.2605 44.8544C45.6143 43.5007 46.3748 41.6645 46.3748 39.75V33.5625C46.3748 32.742 46.0489 31.9551 45.4687 31.3749C44.8885 30.7947 44.1016 30.4688 43.2811 30.4688ZM44.3123 39.75C44.3123 41.1175 43.7691 42.429 42.8021 43.396C41.8351 44.363 40.5236 44.9063 39.1561 44.9063H33.9998C32.9574 44.9189 31.946 44.5524 31.1536 43.875L22.9551 36.3469C22.7646 36.1548 22.6572 35.8955 22.6561 35.625C22.6561 35.4335 22.7094 35.2458 22.8101 35.0828C22.9108 34.9199 23.0548 34.7883 23.2261 34.7026C23.3974 34.617 23.5892 34.5807 23.7799 34.5979C23.9707 34.6151 24.1529 34.6851 24.3061 34.8L29.8748 38.6156V23.25C29.8748 22.9765 29.9835 22.7142 30.1769 22.5208C30.3703 22.3274 30.6326 22.2188 30.9061 22.2188C31.1796 22.2188 31.4419 22.3274 31.6353 22.5208C31.8287 22.7142 31.9373 22.9765 31.9373 23.25V34.5938H33.9998V31.5C33.9998 31.2265 34.1085 30.9642 34.3019 30.7708C34.4953 30.5774 34.7576 30.4688 35.0311 30.4688C35.3046 30.4688 35.5669 30.5774 35.7603 30.7708C35.9537 30.9642 36.0623 31.2265 36.0623 31.5V34.5938H38.1248V32.5313C38.1248 32.2577 38.2335 31.9954 38.4269 31.802C38.6203 31.6087 38.8826 31.5 39.1561 31.5C39.4296 31.5 39.6919 31.6087 39.8853 31.802C40.0787 31.9954 40.1873 32.2577 40.1873 32.5313V34.5938H42.2498V33.5625C42.2498 33.289 42.3585 33.0267 42.5519 32.8333C42.7453 32.6399 43.0076 32.5313 43.2811 32.5313C43.5546 32.5313 43.8169 32.6399 44.0103 32.8333C44.2037 33.0267 44.3123 33.289 44.3123 33.5625V39.75Z" fill="#018DC9"/>
</svg>
